<svg id="wave" style="transform:rotate(0deg); transition: 0.3s" viewBox="0 0 1440 490" version="1.1" xmlns="http://www.w3.org/2000/svg"><defs><linearGradient id="sw-gradient-0" x1="0" x2="0" y1="1" y2="0"><stop stop-color="rgba(62, 102, 243, 1)" offset="0%"></stop><stop stop-color="rgba(11, 222, 255, 1)" offset="100%"></stop></linearGradient></defs><path style="transform:translate(0, 0px); opacity:1" fill="url(#sw-gradient-0)" d="M0,0L240,57.2C480,114,960,229,1440,253.2C1920,278,2400,212,2880,179.7C3360,147,3840,147,4320,138.8C4800,131,5280,114,5760,138.8C6240,163,6720,229,7200,220.5C7680,212,8160,131,8640,130.7C9120,131,9600,212,10080,253.2C10560,294,11040,294,11520,302.2C12000,310,12480,327,12960,326.7C13440,327,13920,310,14400,269.5C14880,229,15360,163,15840,122.5C16320,82,16800,65,17280,106.2C17760,147,18240,245,18720,294C19200,343,19680,343,20160,318.5C20640,294,21120,245,21600,212.3C22080,180,22560,163,23040,179.7C23520,196,24000,245,24480,245C24960,245,25440,196,25920,155.2C26400,114,26880,82,27360,57.2C27840,33,28320,16,28800,57.2C29280,98,29760,196,30240,204.2C30720,212,31200,131,31680,89.8C32160,49,32640,49,33120,81.7C33600,114,34080,180,34320,212.3L34560,245L34560,490L34320,490C34080,490,33600,490,33120,490C32640,490,32160,490,31680,490C31200,490,30720,490,30240,490C29760,490,29280,490,28800,490C28320,490,27840,490,27360,490C26880,490,26400,490,25920,490C25440,490,24960,490,24480,490C24000,490,23520,490,23040,490C22560,490,22080,490,21600,490C21120,490,20640,490,20160,490C19680,490,19200,490,18720,490C18240,490,17760,490,17280,490C16800,490,16320,490,15840,490C15360,490,14880,490,14400,490C13920,490,13440,490,12960,490C12480,490,12000,490,11520,490C11040,490,10560,490,10080,490C9600,490,9120,490,8640,490C8160,490,7680,490,7200,490C6720,490,6240,490,5760,490C5280,490,4800,490,4320,490C3840,490,3360,490,2880,490C2400,490,1920,490,1440,490C960,490,480,490,240,490L0,490Z"></path></svg>